<?xml version="1.0" encoding="UTF-8"?> <svg xmlns="http://www.w3.org/2000/svg" width="100" height="90" viewBox="0 0 100 90" fill="none"><path d="M80.9988 76.1652V64.8347L75.2751 45L80.9988 25.1663V13.8337C80.9988 13.8337 81.6799 11 50 11C18.3201 11 19.0012 13.8337 19.0012 13.8337V25.1663L24.7237 45L19.0012 64.8347V76.1652C19.0012 76.1652 18.32 78.9999 50 78.9999C81.68 78.9999 80.9988 76.1652 80.9988 76.1652ZM22.1014 15.4367C22.9676 15.222 24.5069 14.9294 27.1326 14.6565C32.4056 14.1107 40.0999 13.8337 50 13.8337C59.8977 13.8337 67.5944 14.1107 72.8662 14.6565C75.4907 14.9294 77.0301 15.222 77.8974 15.4367V23.75H22.1014V15.4367ZM27.5208 46.4163H32.9505C33.3467 46.4163 33.744 46.2783 34.0459 46.0012C34.651 45.4482 34.651 44.5517 34.0459 43.9987C33.744 43.7217 33.3467 43.5837 32.9505 43.5837H27.5208L22.6156 26.5837H77.3844L72.478 43.5837H67.0495C66.6523 43.5837 66.2548 43.7217 65.9529 43.9987C65.3467 44.5517 65.3467 45.4482 65.9529 46.0012C66.2548 46.2783 66.6521 46.4163 67.0495 46.4163H72.478L77.3844 63.4152H22.6156L27.5208 46.4163ZM77.8974 74.5632C77.0301 74.779 75.4909 75.0695 72.8662 75.3435C67.5944 75.8892 59.8977 76.1653 50 76.1653C40.0999 76.1653 32.4056 75.8893 27.1326 75.3435C24.5069 75.0696 22.9676 74.779 22.1014 74.5632V66.25H77.8974V74.5632Z" fill="black"></path><path d="M54.0742 41.2459L56.1993 39.2889L54.6486 35.0835H45.3502L43.7995 39.2889L45.9246 41.2457C39.3416 42.8809 34.5 48.3823 34.5 54.915C34.5 55.2803 34.6521 55.6414 34.9541 55.9195C35.5591 56.4715 36.5411 56.4715 37.1462 55.9195C37.4493 55.6414 37.6002 55.2804 37.6002 54.9152C37.6002 51.8896 38.8898 49.0423 41.2317 46.9029C43.5736 44.7623 46.6875 43.5836 50 43.5836C53.3114 43.5836 56.4241 44.7623 58.7671 46.9029C61.1102 49.0423 62.3998 51.8896 62.3998 54.9152C62.3998 55.2804 62.5496 55.6415 62.8538 55.9195C63.4577 56.4715 64.4385 56.4715 65.0448 55.9195C65.3467 55.6414 65.4988 55.2783 65.4988 54.9152C65.4965 48.3824 60.6561 42.8812 54.0742 41.2459ZM50.2428 40.7529C50.1623 40.7519 50.0806 40.7498 50 40.7498C49.9183 40.7498 49.8365 40.7519 49.7559 40.7529L47.3482 38.5345L47.5763 37.9161H52.4235L52.6505 38.5345L50.2428 40.7529Z" fill="black"></path></svg> 