<?xml version="1.0" encoding="UTF-8"?> <svg xmlns="http://www.w3.org/2000/svg" width="45" height="50" viewBox="0 0 45 50" fill="none"><g clip-path="url(#clip0)"><path d="M9.72237 5L0 14.9308L22.4993 41L45 14.9308L35.2776 5H9.72237ZM34.0658 6.35726L31.4699 14.777L24.01 6.35726H34.0658ZM30.9788 16.2759L30.9608 16.3217C28.4694 16.5099 25.6539 16.6351 22.4993 16.6351C19.3454 16.6351 16.5299 16.5099 14.0392 16.3217L14.0212 16.2759L22.4993 6.7057L30.9788 16.2759ZM20.9893 6.35726L13.5301 14.7763L10.9342 6.35726H20.9893ZM9.69501 6.97329L12.5386 16.1965C7.37279 15.7272 3.87397 15.0017 2.22717 14.6003L9.69501 6.97329ZM2.84643 16.145C4.86335 16.5943 8.29304 17.2197 13.0772 17.616L20.4276 36.5168L2.84643 16.145ZM14.5857 17.7262C16.9418 17.8872 19.5708 17.9917 22.4993 17.9917C25.4285 17.9917 28.0575 17.8865 30.4143 17.7262L22.4993 38.0766L14.5857 17.7262ZM24.5709 36.5168L31.9228 17.616C36.707 17.2197 40.1367 16.5943 42.1536 16.145L24.5709 36.5168ZM42.7728 14.601C41.126 15.0017 37.6272 15.7279 32.4622 16.1972L35.3057 6.97401L42.7728 14.601Z" fill="black"></path></g><defs><clipPath id="clip0"><rect width="45" height="50" fill="white"></rect></clipPath></defs></svg> 