<?xml version="1.0" encoding="UTF-8"?> <svg xmlns="http://www.w3.org/2000/svg" width="45" height="49" viewBox="0 0 45 49" fill="none"><g clip-path="url(#clip0)"><path fill-rule="evenodd" clip-rule="evenodd" d="M8.82098 3.77955C8.82098 5.60686 10.0821 7.14275 11.7613 7.48711V23.0045L8.51384 28.0881C8.36404 28.3216 8.36435 28.6208 8.51415 28.8543L11.3568 33.3046C10.9358 33.5343 10.5899 33.8894 10.3651 34.3203L6.15855 31.394C5.841 31.2089 5.66302 31.1967 5.34563 31.394L0.305513 34.9002C0.114023 35.0334 0 35.2515 0 35.4844C0 35.7172 0.114025 35.9353 0.305512 36.0685L5.34607 39.575C5.46791 39.6603 5.61105 39.7024 5.75209 39.7024C5.89314 39.7024 6.0367 39.66 6.15855 39.5747L10.3652 36.6483C10.59 37.0791 10.9358 37.4341 11.3567 37.6638L8.51421 42.1135C8.37744 42.4324 8.38815 42.602 8.51421 42.8802L11.8737 48.1396C12.0043 48.3444 12.2296 48.4682 12.4727 48.4682C12.7159 48.4682 12.9413 48.3442 13.0719 48.1394L16.4326 42.8797C16.5825 42.6461 16.5824 42.3471 16.4323 42.1135L13.5889 37.6638C14.01 37.434 14.3561 37.079 14.5811 36.648L18.7885 39.5749C18.9103 39.6601 19.0533 39.7021 19.1943 39.7021C19.3355 39.7021 19.4789 39.6599 19.6008 39.5745L24.6399 36.0683C24.8314 35.9351 24.9454 35.717 24.9454 35.4841C24.9454 35.2513 24.8314 35.0332 24.6399 34.9L19.6004 31.3935C19.3579 31.2237 19.0304 31.2241 18.7879 31.3937L14.581 34.3203C14.356 33.8894 14.0099 33.5343 13.5887 33.3045L16.4323 28.854C16.5824 28.6204 16.5824 28.3213 16.4322 28.0877L13.184 23.0045V7.48711C14.8633 7.14276 16.1244 5.60687 16.1244 3.77955C16.1244 1.70248 14.4936 0 12.4727 0C10.4518 0 8.82098 1.70248 8.82098 3.77955ZM11.5041 35.4889C11.5065 36.0704 11.9484 36.5229 12.467 36.5262L12.468 36.5262L12.4717 36.5261L12.4738 36.5261L12.4774 36.5262C12.9988 36.5235 13.4422 36.0682 13.4422 35.4842C13.4422 34.9002 12.9978 34.4448 12.4763 34.4423L12.4735 34.4423L12.4715 34.4423L12.4679 34.4422C11.9491 34.4449 11.5067 34.8975 11.5041 35.4792L11.5042 35.4815L11.5042 35.4863L11.5041 35.4889ZM11.7613 31.2956V29.3478C11.7613 28.9547 12.0795 28.6365 12.4727 28.6365C12.8658 28.6365 13.184 28.9547 13.184 29.3478V31.2962L14.9889 28.471L12.4727 24.5328L9.95741 28.471L11.7613 31.2956ZM12.4727 1.42273C11.2534 1.42273 10.2437 2.47046 10.2437 3.77955C10.2437 5.08863 11.2534 6.13636 12.4727 6.13636C13.692 6.13636 14.7017 5.08863 14.7017 3.77955C14.7017 2.47046 13.692 1.42273 12.4727 1.42273ZM19.1943 38.1244L22.989 35.4841L19.1943 32.8439L16.4221 34.7727H18.3534C18.7465 34.7727 19.0647 35.091 19.0647 35.4841C19.0647 35.8772 18.7465 36.1954 18.3534 36.1954H16.422L19.1943 38.1244ZM5.75209 32.8441L1.95743 35.4844L5.75209 38.1246L8.52443 36.1957H6.59204C6.19893 36.1957 5.88068 35.8774 5.88068 35.4843C5.88068 35.0912 6.19894 34.7729 6.59204 34.7729H8.5243L5.75209 32.8441ZM12.4727 42.3319C12.0796 42.3319 11.7614 42.0136 11.7614 41.6205V39.6726L9.95747 42.4969L12.4728 46.4354L14.989 42.4969L13.1841 39.672V41.6205C13.1841 42.0136 12.8658 42.3319 12.4727 42.3319Z" fill="black"></path><path fill-rule="evenodd" clip-rule="evenodd" d="M28.5495 3.77955C28.5495 5.60686 29.8106 7.14275 31.4898 7.48711V14.0045L28.2424 19.0881C28.0926 19.3216 28.0929 19.6208 28.2427 19.8543L31.0853 24.3046C30.6643 24.5343 30.3184 24.8894 30.0936 25.3203L25.8871 22.394C25.5695 22.2089 25.3915 22.1967 25.0742 22.394L20.034 25.9002C19.8425 26.0334 19.7285 26.2515 19.7285 26.4844C19.7285 26.7172 19.8425 26.9353 20.034 27.0685L25.0746 30.575C25.1964 30.6603 25.3396 30.7024 25.4806 30.7024C25.6217 30.7024 25.7652 30.66 25.8871 30.5747L30.0937 27.6483C30.3185 28.0791 30.6643 28.4341 31.0853 28.6638L28.2427 33.1135C28.106 33.4324 28.1167 33.602 28.2427 33.8802L31.6022 39.1396C31.7328 39.3444 31.9581 39.4682 32.2012 39.4682C32.4444 39.4682 32.6698 39.3442 32.8004 39.1394L36.1611 33.8797C36.311 33.6461 36.3109 33.3471 36.1608 33.1135L33.3174 28.6638C33.7385 28.434 34.0847 28.079 34.3096 27.648L38.517 30.5749C38.6388 30.6601 38.7819 30.7021 38.9228 30.7021C39.064 30.7021 39.2074 30.6599 39.3293 30.5745L44.3684 27.0683C44.5599 26.9351 44.6739 26.717 44.6739 26.4841C44.6739 26.2513 44.5599 26.0332 44.3684 25.9L39.3289 22.3935C39.0864 22.2237 38.7589 22.2241 38.5164 22.3937L34.3095 25.3203C34.0845 24.8894 33.7384 24.5343 33.3172 24.3045L36.1609 19.854C36.3109 19.6204 36.3109 19.3213 36.1607 19.0877L32.9126 14.0045V7.48711C34.5918 7.14276 35.8529 5.60687 35.8529 3.77955C35.8529 1.70248 34.2221 0 32.2012 0C30.1803 0 28.5495 1.70248 28.5495 3.77955ZM31.2326 26.4889C31.235 27.0704 31.677 27.5229 32.1955 27.5262L32.1965 27.5262L32.2002 27.5261L32.2023 27.5261L32.2059 27.5262C32.7273 27.5235 33.1707 27.0682 33.1707 26.4842C33.1707 25.9002 32.7263 25.4448 32.2048 25.4423L32.2021 25.4423L32.2 25.4423L32.1964 25.4422C31.6776 25.4449 31.2352 25.8975 31.2326 26.4792L31.2327 26.4815L31.2327 26.4863L31.2326 26.4889ZM31.4898 22.2956V20.3478C31.4898 19.9547 31.8081 19.6365 32.2012 19.6365C32.5943 19.6365 32.9125 19.9547 32.9125 20.3478V22.2962L34.7174 19.471L32.2012 15.5328L29.6859 19.471L31.4898 22.2956ZM32.2012 1.42273C30.9819 1.42273 29.9722 2.47046 29.9722 3.77955C29.9722 5.08863 30.9819 6.13636 32.2012 6.13636C33.4205 6.13636 34.4302 5.08863 34.4302 3.77955C34.4302 2.47046 33.4205 1.42273 32.2012 1.42273ZM38.9228 29.1244L42.7175 26.4841L38.9228 23.8439L36.1506 25.7727H38.0819C38.475 25.7727 38.7932 26.091 38.7932 26.4841C38.7932 26.8772 38.475 27.1954 38.0819 27.1954H36.1505L38.9228 29.1244ZM25.4806 23.8441L21.6859 26.4844L25.4806 29.1246L28.2529 27.1957H26.3206C25.9275 27.1957 25.6092 26.8774 25.6092 26.4843C25.6092 26.0912 25.9275 25.7729 26.3206 25.7729H28.2528L25.4806 23.8441ZM32.2012 33.3319C31.8081 33.3319 31.4899 33.0136 31.4899 32.6205V30.6726L29.686 33.4969L32.2013 37.4354L34.7175 33.4969L32.9126 30.672V32.6205C32.9126 33.0136 32.5943 33.3319 32.2012 33.3319Z" fill="black"></path></g><defs><clipPath id="clip0"><rect width="45" height="49" fill="white"></rect></clipPath></defs></svg> 