<?xml version="1.0" encoding="UTF-8"?> <svg xmlns="http://www.w3.org/2000/svg" width="45" height="50" viewBox="0 0 45 50" fill="none"><path d="M28.6555 15.0059H34.7561C36.3237 15.0059 37.599 13.7305 37.599 12.1629C37.599 10.689 36.4715 9.47344 35.0338 9.33343C34.3672 8.13286 33.1113 7.38208 31.7058 7.38208C30.3002 7.38208 29.0443 8.13286 28.3779 9.33343C26.9401 9.47344 25.8126 10.689 25.8126 12.1629C25.8126 13.7306 27.0879 15.0059 28.6555 15.0059ZM28.6555 10.8433C28.6984 10.8433 28.7428 10.8455 28.7873 10.8499C29.1265 10.8831 29.4483 10.686 29.5718 10.3672C29.9161 9.47917 30.7537 8.90539 31.7058 8.90539C32.6578 8.90539 33.4955 9.47923 33.8398 10.3673C33.9635 10.686 34.2841 10.8837 34.6244 10.8499C34.6689 10.8455 34.7132 10.8433 34.7561 10.8433C35.4837 10.8433 36.0757 11.4353 36.0757 12.1629C36.0757 12.8906 35.4837 13.4826 34.7561 13.4826H28.6555C27.9279 13.4826 27.3359 12.8906 27.3359 12.1629C27.3359 11.4353 27.9279 10.8433 28.6555 10.8433Z" fill="black"></path><path d="M16.8936 9.56356H21.2013C22.4315 9.56356 23.4325 8.5626 23.4325 7.3323C23.4325 6.21545 22.6076 5.2876 21.5351 5.12595C21.0126 4.26574 20.0832 3.73267 19.0475 3.73267C18.0117 3.73267 17.0822 4.26574 16.5597 5.12595C15.4873 5.2876 14.6623 6.21545 14.6623 7.3323C14.6624 8.5626 15.6633 9.56356 16.8936 9.56356ZM16.8936 6.62429C16.9167 6.62429 16.9404 6.62551 16.964 6.62782C17.3049 6.66145 17.6257 6.46422 17.7493 6.14525C17.9588 5.60505 18.4684 5.25592 19.0475 5.25592C19.6266 5.25592 20.1362 5.60499 20.3457 6.14532C20.4693 6.46429 20.7902 6.66121 21.1312 6.62782C21.5516 6.5856 21.9093 6.91882 21.9093 7.3323C21.9093 7.72267 21.5917 8.0403 21.2013 8.0403H16.8937C16.5033 8.0403 16.1857 7.72267 16.1857 7.3323C16.1857 6.94192 16.5033 6.62429 16.8936 6.62429Z" fill="black"></path><path d="M0.0764073 24.0829C0.243904 26.5745 0.818598 28.9942 1.7919 31.2953C2.92459 33.9732 4.54588 36.3781 6.61093 38.4431C8.67591 40.5081 11.0807 42.1294 13.7587 43.2621C16.5316 44.4349 19.4766 45.0296 22.5121 45.0296C25.4614 45.0296 28.3252 44.4681 31.0288 43.3605C31.0309 43.3596 31.0328 43.3588 31.035 43.358C31.112 43.3263 31.1888 43.2946 31.2656 43.2621C33.9435 42.1294 36.3483 40.5081 38.4134 38.4431C40.4784 36.3781 42.0997 33.9733 43.2324 31.2953C43.2457 31.2639 43.2586 31.2324 43.2717 31.201C43.2746 31.1941 43.2776 31.1872 43.2802 31.1803C44.4212 28.441 45 25.5354 45 22.5419C45 19.5064 44.4053 16.5613 43.2325 13.7884C42.0998 11.1105 40.4785 8.70567 38.4134 6.64063C36.3484 4.57564 33.9436 2.95435 31.2657 1.82166C28.4927 0.648878 25.5477 0.0541992 22.5121 0.0541992C19.4766 0.0541992 16.5316 0.648878 13.7587 1.82166C11.0808 2.95435 8.67591 4.5757 6.61093 6.64063C4.54588 8.70561 2.92459 11.1105 1.7919 13.7884C0.619113 16.5613 0.0244339 19.5064 0.0244339 22.5419C0.0244339 22.8602 0.0313799 23.1774 0.044419 23.4935C-0.0240056 23.6852 -0.0134038 23.8982 0.0764073 24.0829ZM1.59857 23.9895L13.7942 11.7938L15.4928 13.4923L8.98983 19.9953C8.69236 20.2927 8.69236 20.775 8.98983 21.0724C9.1385 21.2212 9.33347 21.2955 9.52839 21.2955C9.7233 21.2955 9.91822 21.2212 10.067 21.0724L16.57 14.5694L27.1624 25.162L25.0281 27.2963L17.3683 19.6367C17.2255 19.4938 17.0318 19.4136 16.8298 19.4136C16.6277 19.4136 16.4341 19.4938 16.2912 19.6367L6.61196 29.316C6.61178 29.3162 6.6116 29.3163 6.61148 29.3165C6.61135 29.3166 6.61123 29.3168 6.61105 29.3169L3.84652 32.0815C2.58557 29.6242 1.79714 26.8866 1.59857 23.9895ZM30.9148 41.7466L21.9061 32.7377C21.6087 32.4404 21.1265 32.4403 20.829 32.7377C20.5315 33.0352 20.5315 33.5174 20.829 33.8149L29.368 42.3539C27.2187 43.0997 24.9121 43.5063 22.5121 43.5063C14.9495 43.5063 8.30978 39.4808 4.62192 33.4603L7.1501 30.9321L12.4758 36.2578C12.6244 36.4065 12.8194 36.4809 13.0143 36.4809C13.2092 36.4809 13.4042 36.4065 13.5529 36.2578C13.8504 35.9603 13.8504 35.4781 13.5529 35.1807L8.22722 29.855L16.8298 21.2524L34.97 39.3927C33.7176 40.3209 32.3584 41.1125 30.9148 41.7466ZM36.1675 38.4359L26.1051 28.3734L32.5351 21.9434L36.4761 25.8844L34.6545 27.706C34.357 28.0035 34.357 28.4857 34.6545 28.7831C34.8031 28.9318 34.9981 29.0062 35.193 29.0062C35.388 29.0062 35.5829 28.9318 35.7316 28.7831L37.5532 26.9615L41.6619 31.0703C40.3896 33.9158 38.5016 36.4278 36.1675 38.4359ZM22.5121 1.57745C34.072 1.57745 43.4766 10.9821 43.4766 22.5419C43.4766 24.9917 43.0529 27.344 42.277 29.5312L38.092 25.3461C38.0919 25.3459 38.0917 25.3458 38.0917 25.3458C38.0916 25.3457 38.0915 25.3456 38.0914 25.3455L33.0736 20.3277C32.9308 20.1848 32.7371 20.1046 32.535 20.1046C32.333 20.1046 32.1393 20.1848 31.9965 20.3277L28.2393 24.0848L17.1086 12.9539C17.1085 12.9538 17.1085 12.9538 17.1085 12.9538C17.1084 12.9537 17.1084 12.9537 17.1083 12.9537L14.3328 10.1781C14.19 10.0353 13.9963 9.95505 13.7942 9.95505C13.5922 9.95505 13.3986 10.0353 13.2557 10.1781L1.55939 21.8744C1.91321 10.6224 11.1758 1.57745 22.5121 1.57745Z" fill="black"></path><path d="M19.1228 32.1085C19.2715 32.2571 19.4665 32.3315 19.6614 32.3315C19.8563 32.3315 20.0512 32.2571 20.1999 32.1084C20.4974 31.811 20.4974 31.3287 20.1999 31.0312L19.474 30.3053C19.1764 30.0079 18.6942 30.0079 18.3968 30.3054C18.0994 30.6028 18.0994 31.0851 18.3968 31.3826L19.1228 32.1085Z" fill="black"></path><path d="M15.5026 37.1305C15.2054 36.8331 14.7232 36.8331 14.4255 37.1305C14.1281 37.4279 14.1281 37.9101 14.4255 38.2076L15.1759 38.958C15.3245 39.1068 15.5195 39.1811 15.7144 39.1811C15.9093 39.1811 16.1042 39.1068 16.253 38.958C16.5505 38.6606 16.5505 38.1784 16.253 37.8809L15.5026 37.1305Z" fill="black"></path><path d="M7.47607 23.3481C7.67099 23.3481 7.86591 23.2737 8.01464 23.125L8.46247 22.6772C8.75993 22.3797 8.75993 21.8974 8.46247 21.6C8.16507 21.3026 7.68275 21.3026 7.38535 21.6L6.93751 22.0479C6.64005 22.3453 6.64005 22.8276 6.93751 23.125C7.08618 23.2737 7.28116 23.3481 7.47607 23.3481Z" fill="black"></path><path d="M33.076 29.2844L32.8075 29.5528C32.51 29.8503 32.51 30.3325 32.8075 30.63C32.9562 30.7787 33.1512 30.8531 33.3461 30.8531C33.541 30.8531 33.7359 30.7787 33.8846 30.63L34.1531 30.3615C34.4506 30.0641 34.4506 29.5818 34.1531 29.2844C33.8557 28.9869 33.3734 28.9869 33.076 29.2844Z" fill="black"></path></svg> 