<?xml version="1.0" encoding="UTF-8"?> <svg xmlns="http://www.w3.org/2000/svg" width="100" height="90" viewBox="0 0 100 90" fill="none"><path fill-rule="evenodd" clip-rule="evenodd" d="M50 43.3999C56.2859 43.3999 61.4 38.2858 61.4 31.9999C61.4 25.7139 56.2859 20.5999 50 20.5999C43.7141 20.5999 38.6 25.7139 38.6 31.9999C38.6 38.2858 43.7141 43.3999 50 43.3999ZM50 23.3999C54.7411 23.3999 58.6 27.2588 58.6 31.9999C58.6 36.7409 54.7411 40.5999 50 40.5999C45.2589 40.5999 41.4 36.7409 41.4 31.9999C41.4 27.2588 45.2589 23.3999 50 23.3999Z" fill="black"></path><path fill-rule="evenodd" clip-rule="evenodd" d="M65.8228 62.2999L82.9091 88.7059C83.6061 89.7847 85.3 89.2976 85.3 88V73.273C85.3 73.0228 85.2271 72.7771 85.0908 72.5668L78.4475 62.2999H83C83.4126 62.2999 83.7437 62.1407 83.9684 61.8858C84.188 61.6367 84.2914 61.3133 84.2915 61.0001C84.2917 60.6869 84.1887 60.3634 83.969 60.1141C83.7443 59.8591 83.413 59.7 83 59.7H76.7652L65.8993 42.9061C68.037 39.8008 69.3 36.0479 69.3 32C69.3 23.1966 63.3689 15.7731 55.3 13.4624V5.99995C55.3 3.07727 52.9227 0.699951 50 0.699951C47.0773 0.699951 44.7 3.07727 44.7 5.99995V13.4624C36.6312 15.7731 30.7 23.1966 30.7 32C30.7 36.0479 31.963 39.8008 34.1007 42.9061L23.2348 59.7H17C16.5874 59.7 16.2563 59.8592 16.0316 60.1141C15.812 60.3632 15.7087 60.6866 15.7085 60.9998C15.7084 61.313 15.8114 61.6365 16.031 61.8858C16.2557 62.1408 16.587 62.2999 17 62.2999H21.5526L14.9093 72.5668L14.7 73.273V88C14.7 89.2993 16.393 89.7866 17.0911 88.7056L34.1772 62.2999H48.7V67C48.7 67.4126 48.8593 67.7437 49.1141 67.9683C49.3633 68.188 49.6866 68.2913 49.9999 68.2915C50.3131 68.2916 50.6366 68.1886 50.8858 67.9689C51.1409 67.7442 51.3 67.4129 51.3 67V62.2999H65.8228ZM17.3 73.6576L24.6492 62.2999H31.0816L17.3 83.5981V73.6576ZM51.3 55V59.7H64.1405L57.6653 49.694C52.7424 51.8378 47.248 51.8341 42.3337 49.694L35.8594 59.7H48.7V55C48.7 54.587 48.8592 54.2557 49.1142 54.031C49.3635 53.8113 49.6869 53.7083 50.0002 53.7085C50.3134 53.7086 50.6367 53.8119 50.8859 54.0316C51.1408 54.2562 51.3 54.5873 51.3 55ZM26.3315 59.7L35.8105 45.0511C37.0571 46.4021 38.5126 47.5828 40.0132 48.497L32.7628 59.7H26.3315ZM64.1895 45.0511C62.9607 46.3827 61.5102 47.5697 59.9869 48.4962L67.2362 59.7H73.6686L64.1895 45.0511ZM68.9194 62.2999H75.3518L82.7 73.6575V83.598L68.9194 62.2999ZM46.3041 15.7266C38.8703 17.4145 33.3 24.0638 33.3 32C33.3 44.3362 46.4458 52.5868 57.6028 46.8502C63.1144 44.0217 66.7 38.2926 66.7 32C66.7 21.3947 56.8229 13.3493 46.3041 15.7266ZM52.7 12.8982C50.762 12.6175 48.9672 12.6562 47.3 12.8981V5.99995C47.3 5.09131 47.6408 4.43125 48.1358 3.995C48.6366 3.55372 49.3133 3.32632 50.0001 3.3262C50.6868 3.32609 51.3634 3.55327 51.8642 3.99445C52.3592 4.4306 52.7 5.09076 52.7 5.99995V12.8982Z" fill="black"></path></svg> 