<?xml version="1.0" encoding="UTF-8"?> <svg xmlns="http://www.w3.org/2000/svg" width="45" height="51" viewBox="0 0 45 51" fill="none"><g clip-path="url(#clip0)"><path d="M44.922 37.4145C44.517 36.6045 43.944 35.937 43.2765 35.4045C43.4625 34.4925 43.5675 33.5535 43.5675 32.601C43.5675 28.0755 35.8605 17.9985 33.072 14.499H35.25C35.664 14.499 36 14.163 36 13.749C36 13.335 35.664 12.999 35.25 12.999H33.654C36.1845 10.911 40.5465 6.96752 40.8045 4.39652C40.8675 3.75752 40.698 3.19052 40.3125 2.75402C38.79 1.02902 34.6605 3.58652 32.4165 5.19602C31.227 3.58052 29.1135 0.999023 27.75 0.999023C26.3865 0.999023 24.273 3.58052 23.0835 5.19602C20.841 3.58502 16.7145 1.02752 15.1875 2.75252C14.802 3.18902 14.6325 3.75752 14.6955 4.39502C14.955 6.96602 19.317 10.911 21.8475 12.999H20.25C19.836 12.999 19.5 13.335 19.5 13.749C19.5 14.163 19.836 14.499 20.25 14.499H22.389C20.103 17.2485 14.751 23.922 12.966 28.14L10.998 27.702C11.109 27.009 11.1975 26.3655 11.2455 25.8135C11.2665 25.5855 11.181 25.362 11.0145 25.2045C9.3855 23.661 2.1825 23.5125 0.756 23.499C0.6075 23.496 0.366 23.5755 0.222 23.7165C0.081 23.8575 0 24.0495 0 24.249V42.249C0 42.663 0.336 42.999 0.75 42.999H6.75C7.086 42.999 7.3785 42.777 7.4685 42.4545C7.5 42.345 7.695 41.658 7.9755 40.6335L21.2895 45.072C22.848 45.6615 23.925 46.002 25.14 46.002C27.033 46.0005 29.259 45.171 34.158 43.161L44.5605 38.433C44.745 38.349 44.889 38.193 44.958 38.001C45.0255 37.809 45.0135 37.5975 44.922 37.4145ZM16.188 4.24502C16.1595 3.96002 16.239 3.82802 16.3125 3.74552C16.7355 3.26852 19.7265 4.53902 22.7985 6.84902C22.962 6.97202 23.169 7.02452 23.367 6.99002C23.568 6.95852 23.7465 6.84752 23.8635 6.68102C25.377 4.52702 27.1995 2.57252 27.7395 2.49902C28.3005 2.57252 30.1215 4.52552 31.6365 6.68102C31.7535 6.84752 31.932 6.95852 32.133 6.99002C32.331 7.02302 32.538 6.97202 32.7015 6.84902C35.775 4.54052 38.7645 3.26102 39.1875 3.74552C39.261 3.82802 39.3405 3.95852 39.312 4.24502C39.105 6.29402 34.341 10.629 31.2465 12.999H24.2535C21.159 10.629 16.395 6.29552 16.188 4.24502ZM24.3465 14.499H31.146C34.392 18.456 42.066 28.656 42.066 32.601C42.066 33.267 41.997 33.9225 41.895 34.5675C40.725 34.0695 39.396 33.9345 38.076 34.266L31.7175 35.856C31.617 34.671 31.2375 33.7275 30.5445 32.994C31.1595 32.3685 31.5 31.566 31.5 30.7275C31.5 29.1405 30.516 28.0665 28.5 27.4905V23.613C29.331 23.862 29.946 24.507 30.0015 25.2915C30.0315 25.7055 30.3975 26.0205 30.804 25.986C31.2165 25.9575 31.5285 25.5975 31.4985 25.185C31.386 23.6295 30.1245 22.371 28.5 22.0695V21.249C28.5 20.835 28.164 20.499 27.75 20.499C27.336 20.499 27 20.835 27 21.249V22.068C25.29 22.386 24 23.763 24 25.4085C24 26.9955 24.9855 28.0695 27 28.644V31.257L14.4555 28.47C16.527 23.841 23.0565 16.0215 24.3465 14.499ZM27 27.0735C25.989 26.718 25.5 26.1945 25.5 25.4085C25.5 24.5805 26.1285 23.8815 27 23.6175V27.0735ZM28.5 29.061C29.511 29.4165 30 29.94 30 30.7275C30 31.1805 29.8065 31.62 29.4585 31.9665C29.421 32.0025 29.403 32.049 29.3745 32.091C29.1075 31.944 28.815 31.812 28.5 31.692V29.061ZM1.5 41.499V25.0125C4.5 25.089 8.4465 25.4505 9.711 26.1075C9.333 29.472 7.794 35.532 6.828 39.1305C6.7545 39.207 6.6945 39.297 6.6585 39.405C6.615 39.537 6.621 39.6705 6.6495 39.798C6.4545 40.5165 6.291 41.1105 6.1815 41.499C6.1815 41.499 1.5 41.499 1.5 41.499ZM33.5655 41.7855C25.7235 44.9985 25.275 44.9745 21.792 43.659L8.3685 39.1845C9.105 36.429 10.1175 32.4405 10.7385 29.1825L27.045 32.805C29.28 33.3645 30.1755 34.3035 30.2535 36.222L28.284 36.714C27.5835 36.8895 26.838 36.9075 26.124 36.765L17.9175 35.124C17.5155 35.0415 17.118 35.3055 17.0355 35.712C16.9545 36.1185 17.2185 36.513 17.625 36.594L25.8315 38.235C26.2455 38.319 26.667 38.3595 27.09 38.3595C27.615 38.3595 28.14 38.2965 28.647 38.169L31.191 37.533C31.1925 37.533 31.194 37.533 31.194 37.533L38.439 35.721C40.26 35.265 42.1005 35.9565 43.1715 37.4175L33.5655 41.7855Z" fill="black"></path></g><defs><clipPath id="clip0"><rect width="45" height="51" fill="white"></rect></clipPath></defs></svg> 